<svg xmlns="http://www.w3.org/2000/svg" xmlns:xlink="http://www.w3.org/1999/xlink" width="250" zoomAndPan="magnify" viewBox="0 0 187.5 112.499997" height="150" preserveAspectRatio="xMidYMid meet" version="1.2"><defs><clipPath id="bd51a6af8c"><path d="M 0.164062 0 L 186.835938 0 L 186.835938 112.003906 L 0.164062 112.003906 Z M 0.164062 0 "/></clipPath><clipPath id="adbbeda3a3"><path d="M 35 14 L 112.402344 14 L 112.402344 29 L 35 29 Z M 35 14 "/></clipPath><clipPath id="d2c3fe6ca0"><path d="M 2.632812 7.820312 L 106 7.820312 L 106 79 L 2.632812 79 Z M 2.632812 7.820312 "/></clipPath></defs><g id="6a1c468160"><g clip-rule="nonzero" clip-path="url(#bd51a6af8c)"><path style=" stroke:none;fill-rule:nonzero;fill:#ffffff;fill-opacity:1;" d="M 0.164062 0 L 186.835938 0 L 186.835938 112.003906 L 0.164062 112.003906 Z M 0.164062 0 "/><path style=" stroke:none;fill-rule:nonzero;fill:#ffffff;fill-opacity:1;" d="M 0.164062 0 L 186.847656 0 L 186.847656 112.007812 L 0.164062 112.007812 Z M 0.164062 0 "/></g><g clip-rule="nonzero" clip-path="url(#adbbeda3a3)"><path style=" stroke:none;fill-rule:nonzero;fill:#ff3131;fill-opacity:1;" d="M 36.226562 27.976562 C 45.070312 22.269531 56.820312 19.125 69.308594 19.125 C 70.722656 19.125 72.132812 19.167969 73.53125 19.25 C 78.113281 18.542969 82.917969 18.164062 87.863281 18.164062 C 96.636719 18.160156 104.953125 19.339844 112.398438 21.457031 C 103.246094 16.84375 91.726562 14.097656 79.210938 14.097656 C 61.421875 14.105469 45.648438 19.664062 35.824219 28.238281 C 35.957031 28.152344 36.09375 28.0625 36.226562 27.976562 "/></g><path style=" stroke:none;fill-rule:nonzero;fill:#ff3131;fill-opacity:1;" d="M 69.308594 19.621094 C 43.679688 19.621094 22.90625 33.027344 22.90625 49.566406 C 22.90625 55.042969 25.1875 60.175781 29.164062 64.59375 L 33.269531 60.492188 C 33.519531 60.238281 33.816406 60.050781 34.136719 59.925781 C 33.210938 57.5625 32.714844 55.089844 32.714844 52.539062 C 32.714844 36.003906 53.492188 22.597656 79.117188 22.597656 C 84.246094 22.597656 89.179688 23.136719 93.792969 24.125 C 86.6875 21.269531 78.296875 19.621094 69.308594 19.621094 "/><g clip-rule="nonzero" clip-path="url(#d2c3fe6ca0)"><path style=" stroke:none;fill-rule:nonzero;fill:#004aad;fill-opacity:1;" d="M 16.65625 77.101562 L 26.296875 67.460938 C 22.566406 62.347656 20.476562 56.632812 20.476562 50.601562 C 20.472656 28.699219 47.984375 10.933594 81.929688 10.925781 C 90.203125 10.921875 98.09375 11.976562 105.300781 13.886719 C 95.171875 10.035156 83.363281 7.820312 70.753906 7.820312 C 33.132812 7.820312 2.632812 27.503906 2.632812 51.78125 C 2.632812 61.609375 7.632812 70.683594 16.078125 78.003906 C 16.199219 77.675781 16.390625 77.367188 16.65625 77.101562 "/></g><path style=" stroke:none;fill-rule:nonzero;fill:#000000;fill-opacity:1;" d="M 59.054688 97.632812 L 48.070312 86.652344 C 47.578125 86.15625 46.808594 86.105469 46.261719 86.5 L 45.867188 86.105469 C 45.375 85.613281 44.59375 85.597656 44.078125 86.050781 L 42.214844 87.914062 C 41.761719 88.429688 41.777344 89.210938 42.269531 89.703125 L 42.664062 90.097656 C 42.273438 90.644531 42.324219 91.414062 42.816406 91.90625 L 53.796875 102.890625 C 55.050781 104.140625 57.082031 104.140625 58.332031 102.890625 L 59.054688 102.167969 C 60.304688 100.917969 60.304688 98.886719 59.054688 97.632812 "/><path style=" stroke:none;fill-rule:nonzero;fill:#000000;fill-opacity:1;" d="M 38.863281 63.289062 L 36.152344 60.578125 C 35.371094 60.066406 34.308594 60.152344 33.617188 60.839844 L 17.007812 77.453125 C 16.21875 78.242188 16.21875 79.519531 17.007812 80.308594 L 19.132812 82.4375 C 19.921875 83.226562 21.199219 83.226562 21.988281 82.4375 L 38.601562 65.824219 C 39.289062 65.136719 39.378906 64.074219 38.863281 63.289062 "/><path style=" stroke:none;fill-rule:nonzero;fill:#000000;fill-opacity:1;" d="M 43.46875 86.101562 L 40.050781 82.6875 C 39.613281 82.25 39.515625 81.589844 39.808594 81.042969 L 46.746094 68.058594 C 47.460938 66.722656 47.222656 65.105469 46.148438 64.035156 L 42.59375 60.476562 C 41.261719 59.148438 39.097656 59.148438 37.765625 60.476562 L 37.1875 61.058594 L 38.386719 62.253906 L 38.964844 61.675781 C 39.632812 61.007812 40.722656 61.007812 41.394531 61.675781 L 44.953125 65.234375 C 45.488281 65.773438 45.609375 66.585938 45.25 67.257812 L 38.3125 80.242188 C 37.664062 81.453125 37.882812 82.917969 38.855469 83.886719 L 42.269531 87.300781 L 43.46875 86.101562 "/><g style="fill:#000000;fill-opacity:1;"><g transform="translate(51.561343, 49.334552)"><path style="stroke:none" d="M 14.265625 0 L 10.359375 0 L 9.84375 -3.34375 L 9.84375 -3.390625 L 4.140625 -3.34375 L 3.625 0 L 0.171875 0 L 1.265625 -3.34375 L 4.015625 -13.375 L 4.671875 -16.703125 L 9.609375 -16.703125 L 10.265625 -13.375 L 13.171875 -3.34375 Z M 8.953125 -6.4375 L 6.921875 -13.5625 L 4.984375 -6.421875 Z M 8.953125 -6.4375 "/></g></g><g style="fill:#000000;fill-opacity:1;"><g transform="translate(65.994571, 49.334552)"><path style="stroke:none" d="M 1.453125 -3.34375 L 1.453125 -14.59375 L 1.21875 -17.828125 L 4.796875 -17.828125 L 4.5625 -14.59375 L 4.5625 -3.34375 L 4.796875 0 L 1.21875 0 Z M 1.453125 -3.34375 "/></g></g><g style="fill:#000000;fill-opacity:1;"><g transform="translate(72.008409, 49.334552)"><path style="stroke:none" d="M 0.78125 -8.359375 L 10.25 -8.359375 L 10.25 -5.34375 L 0.78125 -5.34375 Z M 0.78125 -8.359375 "/></g></g><g style="fill:#000000;fill-opacity:1;"><g transform="translate(82.699662, 49.334552)"><path style="stroke:none" d="M 4.171875 -16.703125 L 4.234375 -13.375 L 5.765625 -2.828125 L 8.25 -16.703125 L 12.1875 -16.703125 L 14.546875 -2.671875 L 16.15625 -13.375 L 16.21875 -16.703125 L 19.8125 -16.703125 L 19.046875 -13.375 L 17.40625 -3.25 L 17.09375 0 L 11.859375 0 L 9.890625 -12.828125 L 7.890625 0 L 2.859375 0 L 2.515625 -3.34375 L 0.84375 -13.375 L 0.09375 -16.703125 Z M 4.171875 -16.703125 "/></g></g><g style="fill:#000000;fill-opacity:1;"><g transform="translate(102.099841, 49.334552)"><path style="stroke:none" d="M 0.734375 -3.71875 C 0.734375 -4.5625 0.9375 -5.328125 1.34375 -6.015625 C 1.75 -6.710938 2.289062 -7.257812 2.96875 -7.65625 C 3.644531 -8.0625 4.378906 -8.265625 5.171875 -8.265625 C 6.535156 -8.265625 7.597656 -8.066406 8.359375 -7.671875 L 8.359375 -8.84375 C 8.359375 -9.40625 8.128906 -9.84375 7.671875 -10.15625 C 7.222656 -10.46875 6.585938 -10.625 5.765625 -10.625 C 4.890625 -10.625 4.113281 -10.484375 3.4375 -10.203125 C 2.757812 -9.921875 2.242188 -9.5 1.890625 -8.9375 L 1.65625 -8.984375 L 2.046875 -12.28125 C 2.554688 -12.726562 3.1875 -13.070312 3.9375 -13.3125 C 4.6875 -13.5625 5.445312 -13.6875 6.21875 -13.6875 C 7.820312 -13.6875 9.097656 -13.304688 10.046875 -12.546875 C 10.992188 -11.785156 11.46875 -10.753906 11.46875 -9.453125 L 11.46875 -3.3125 L 11.703125 0 L 8.421875 0 L 8.359375 -1.21875 C 8.054688 -0.75 7.585938 -0.367188 6.953125 -0.078125 C 6.328125 0.210938 5.632812 0.359375 4.875 0.359375 C 3.613281 0.359375 2.609375 -0.00390625 1.859375 -0.734375 C 1.109375 -1.460938 0.734375 -2.457031 0.734375 -3.71875 Z M 3.9375 -3.921875 C 3.9375 -3.410156 4.066406 -3.019531 4.328125 -2.75 C 4.585938 -2.476562 4.972656 -2.34375 5.484375 -2.34375 C 6.035156 -2.34375 6.554688 -2.445312 7.046875 -2.65625 C 7.546875 -2.875 7.984375 -3.1875 8.359375 -3.59375 L 8.359375 -5.109375 C 7.523438 -5.503906 6.585938 -5.703125 5.546875 -5.703125 C 4.992188 -5.703125 4.585938 -5.550781 4.328125 -5.25 C 4.066406 -4.957031 3.9375 -4.515625 3.9375 -3.921875 Z M 3.9375 -3.921875 "/></g></g><g style="fill:#000000;fill-opacity:1;"><g transform="translate(114.862557, 49.334552)"><path style="stroke:none" d="M 11.703125 1.109375 L 11.921875 4.453125 L 8.359375 4.453125 L 8.578125 1.109375 L 8.578125 -1.21875 C 8.304688 -0.820312 7.890625 -0.488281 7.328125 -0.21875 C 6.765625 0.0390625 6.226562 0.171875 5.71875 0.171875 C 4.164062 0.171875 2.96875 -0.414062 2.125 -1.59375 C 1.289062 -2.769531 0.875 -4.472656 0.875 -6.703125 C 0.875 -9.066406 1.257812 -10.8125 2.03125 -11.9375 C 2.8125 -13.070312 3.96875 -13.640625 5.5 -13.640625 C 6.164062 -13.640625 6.785156 -13.5625 7.359375 -13.40625 C 7.929688 -13.25 8.394531 -13.03125 8.75 -12.75 L 8.875 -13.375 L 11.921875 -13.375 L 11.703125 -10.046875 Z M 8.578125 -10.265625 C 8.085938 -10.460938 7.359375 -10.5625 6.390625 -10.5625 C 5.765625 -10.5625 5.289062 -10.457031 4.96875 -10.25 C 4.644531 -10.039062 4.414062 -9.664062 4.28125 -9.125 C 4.144531 -8.582031 4.078125 -7.773438 4.078125 -6.703125 C 4.078125 -5.679688 4.140625 -4.894531 4.265625 -4.34375 C 4.390625 -3.789062 4.597656 -3.398438 4.890625 -3.171875 C 5.191406 -2.941406 5.617188 -2.828125 6.171875 -2.828125 C 6.585938 -2.828125 7.03125 -2.890625 7.5 -3.015625 C 7.96875 -3.140625 8.328125 -3.289062 8.578125 -3.46875 Z M 8.578125 -10.265625 "/></g></g><g style="fill:#000000;fill-opacity:1;"><g transform="translate(128.003912, 49.334552)"><path style="stroke:none" d="M 0.734375 -3.71875 C 0.734375 -4.5625 0.9375 -5.328125 1.34375 -6.015625 C 1.75 -6.710938 2.289062 -7.257812 2.96875 -7.65625 C 3.644531 -8.0625 4.378906 -8.265625 5.171875 -8.265625 C 6.535156 -8.265625 7.597656 -8.066406 8.359375 -7.671875 L 8.359375 -8.84375 C 8.359375 -9.40625 8.128906 -9.84375 7.671875 -10.15625 C 7.222656 -10.46875 6.585938 -10.625 5.765625 -10.625 C 4.890625 -10.625 4.113281 -10.484375 3.4375 -10.203125 C 2.757812 -9.921875 2.242188 -9.5 1.890625 -8.9375 L 1.65625 -8.984375 L 2.046875 -12.28125 C 2.554688 -12.726562 3.1875 -13.070312 3.9375 -13.3125 C 4.6875 -13.5625 5.445312 -13.6875 6.21875 -13.6875 C 7.820312 -13.6875 9.097656 -13.304688 10.046875 -12.546875 C 10.992188 -11.785156 11.46875 -10.753906 11.46875 -9.453125 L 11.46875 -3.3125 L 11.703125 0 L 8.421875 0 L 8.359375 -1.21875 C 8.054688 -0.75 7.585938 -0.367188 6.953125 -0.078125 C 6.328125 0.210938 5.632812 0.359375 4.875 0.359375 C 3.613281 0.359375 2.609375 -0.00390625 1.859375 -0.734375 C 1.109375 -1.460938 0.734375 -2.457031 0.734375 -3.71875 Z M 3.9375 -3.921875 C 3.9375 -3.410156 4.066406 -3.019531 4.328125 -2.75 C 4.585938 -2.476562 4.972656 -2.34375 5.484375 -2.34375 C 6.035156 -2.34375 6.554688 -2.445312 7.046875 -2.65625 C 7.546875 -2.875 7.984375 -3.1875 8.359375 -3.59375 L 8.359375 -5.109375 C 7.523438 -5.503906 6.585938 -5.703125 5.546875 -5.703125 C 4.992188 -5.703125 4.585938 -5.550781 4.328125 -5.25 C 4.066406 -4.957031 3.9375 -4.515625 3.9375 -3.921875 Z M 3.9375 -3.921875 "/></g></g><g style="fill:#000000;fill-opacity:1;"><g transform="translate(140.766627, 49.334552)"><path style="stroke:none" d="M 5.859375 0.21875 C 4.847656 0.21875 4.019531 0.0820312 3.375 -0.1875 C 2.726562 -0.46875 2.078125 -0.941406 1.421875 -1.609375 L 1 -4.40625 L 1.3125 -4.5 C 1.875 -4.007812 2.519531 -3.625 3.25 -3.34375 C 3.976562 -3.0625 4.707031 -2.921875 5.4375 -2.921875 C 6.164062 -2.921875 6.671875 -2.988281 6.953125 -3.125 C 7.242188 -3.269531 7.390625 -3.519531 7.390625 -3.875 C 7.390625 -4.195312 7.207031 -4.46875 6.84375 -4.6875 C 6.488281 -4.914062 5.859375 -5.164062 4.953125 -5.4375 C 4.023438 -5.707031 3.300781 -6.003906 2.78125 -6.328125 C 2.257812 -6.648438 1.878906 -7.0625 1.640625 -7.5625 C 1.410156 -8.0625 1.296875 -8.691406 1.296875 -9.453125 C 1.296875 -10.796875 1.695312 -11.832031 2.5 -12.5625 C 3.3125 -13.289062 4.460938 -13.65625 5.953125 -13.65625 C 6.859375 -13.65625 7.65625 -13.539062 8.34375 -13.3125 C 9.03125 -13.082031 9.648438 -12.722656 10.203125 -12.234375 L 9.71875 -9.421875 L 9.375 -9.328125 C 9.144531 -9.722656 8.71875 -10.03125 8.09375 -10.25 C 7.476562 -10.46875 6.859375 -10.578125 6.234375 -10.578125 C 5.078125 -10.578125 4.5 -10.253906 4.5 -9.609375 C 4.5 -9.234375 4.65625 -8.941406 4.96875 -8.734375 C 5.289062 -8.523438 5.914062 -8.296875 6.84375 -8.046875 C 8.144531 -7.691406 9.097656 -7.195312 9.703125 -6.5625 C 10.304688 -5.925781 10.609375 -5.078125 10.609375 -4.015625 C 10.609375 -2.640625 10.191406 -1.585938 9.359375 -0.859375 C 8.523438 -0.140625 7.359375 0.21875 5.859375 0.21875 Z M 5.859375 0.21875 "/></g></g><g style="fill:#000000;fill-opacity:1;"><g transform="translate(152.381446, 49.334552)"><path style="stroke:none" d=""/></g></g><g style="fill:#000000;fill-opacity:1;"><g transform="translate(51.561343, 65.762594)"><path style="stroke:none" d="M 5.265625 -11.78125 C 6.535156 -11.78125 7.539062 -11.421875 8.28125 -10.703125 C 9.019531 -9.992188 9.390625 -8.972656 9.390625 -7.640625 C 9.390625 -6.765625 9.21875 -6.015625 8.875 -5.390625 C 8.53125 -4.765625 8.046875 -4.285156 7.421875 -3.953125 C 6.796875 -3.617188 6.070312 -3.453125 5.25 -3.453125 L 3.359375 -3.453125 L 3.359375 -2.359375 L 3.515625 0 L 0.9375 0 L 1.09375 -2.359375 L 1.09375 -9.515625 L 0.9375 -11.78125 Z M 4.609375 -5.625 C 5.234375 -5.625 5.71875 -5.679688 6.0625 -5.796875 C 6.414062 -5.921875 6.664062 -6.128906 6.8125 -6.421875 C 6.957031 -6.710938 7.03125 -7.117188 7.03125 -7.640625 C 7.03125 -8.140625 6.957031 -8.53125 6.8125 -8.8125 C 6.664062 -9.101562 6.414062 -9.3125 6.0625 -9.4375 C 5.71875 -9.5625 5.242188 -9.625 4.640625 -9.625 L 3.359375 -9.625 L 3.359375 -5.625 Z M 4.609375 -5.625 "/></g></g><g style="fill:#000000;fill-opacity:1;"><g transform="translate(61.053848, 65.762594)"><path style="stroke:none" d="M 0.515625 -2.625 C 0.515625 -3.21875 0.660156 -3.757812 0.953125 -4.25 C 1.242188 -4.738281 1.625 -5.125 2.09375 -5.40625 C 2.570312 -5.6875 3.085938 -5.828125 3.640625 -5.828125 C 4.609375 -5.828125 5.359375 -5.6875 5.890625 -5.40625 L 5.890625 -6.234375 C 5.890625 -6.640625 5.726562 -6.953125 5.40625 -7.171875 C 5.09375 -7.390625 4.648438 -7.5 4.078125 -7.5 C 3.453125 -7.5 2.898438 -7.398438 2.421875 -7.203125 C 1.953125 -7.003906 1.59375 -6.703125 1.34375 -6.296875 L 1.15625 -6.328125 L 1.453125 -8.65625 C 1.804688 -8.96875 2.242188 -9.210938 2.765625 -9.390625 C 3.296875 -9.566406 3.835938 -9.65625 4.390625 -9.65625 C 5.515625 -9.65625 6.410156 -9.382812 7.078125 -8.84375 C 7.753906 -8.3125 8.09375 -7.585938 8.09375 -6.671875 L 8.09375 -2.34375 L 8.25 0 L 5.9375 0 L 5.890625 -0.859375 C 5.679688 -0.523438 5.351562 -0.253906 4.90625 -0.046875 C 4.46875 0.148438 3.976562 0.25 3.4375 0.25 C 2.550781 0.25 1.84375 -0.00390625 1.3125 -0.515625 C 0.78125 -1.023438 0.515625 -1.726562 0.515625 -2.625 Z M 2.78125 -2.765625 C 2.78125 -2.410156 2.867188 -2.132812 3.046875 -1.9375 C 3.234375 -1.75 3.503906 -1.65625 3.859375 -1.65625 C 4.253906 -1.65625 4.625 -1.726562 4.96875 -1.875 C 5.320312 -2.03125 5.628906 -2.25 5.890625 -2.53125 L 5.890625 -3.59375 C 5.304688 -3.882812 4.644531 -4.03125 3.90625 -4.03125 C 3.519531 -4.03125 3.234375 -3.921875 3.046875 -3.703125 C 2.867188 -3.492188 2.78125 -3.179688 2.78125 -2.765625 Z M 2.78125 -2.765625 "/></g></g><g style="fill:#000000;fill-opacity:1;"><g transform="translate(70.059297, 65.762594)"><path style="stroke:none" d="M 2.109375 -10.296875 C 1.710938 -10.296875 1.375 -10.40625 1.09375 -10.625 C 0.8125 -10.851562 0.671875 -11.144531 0.671875 -11.5 C 0.671875 -11.875 0.8125 -12.171875 1.09375 -12.390625 C 1.375 -12.617188 1.710938 -12.734375 2.109375 -12.734375 C 2.503906 -12.734375 2.835938 -12.617188 3.109375 -12.390625 C 3.390625 -12.171875 3.53125 -11.875 3.53125 -11.5 C 3.53125 -11.144531 3.390625 -10.851562 3.109375 -10.625 C 2.835938 -10.40625 2.503906 -10.296875 2.109375 -10.296875 Z M 0.984375 -2.359375 L 0.984375 -7.15625 L 0.828125 -9.4375 L 3.34375 -9.4375 L 3.1875 -7.15625 L 3.1875 -2.359375 L 3.34375 0 L 0.828125 0 Z M 0.984375 -2.359375 "/></g></g><g style="fill:#000000;fill-opacity:1;"><g transform="translate(74.271271, 65.762594)"><path style="stroke:none" d="M 5.96875 -2.359375 L 5.96875 -6.390625 C 5.96875 -6.742188 5.867188 -7.019531 5.671875 -7.21875 C 5.484375 -7.425781 5.226562 -7.53125 4.90625 -7.53125 C 4.238281 -7.53125 3.675781 -7.171875 3.21875 -6.453125 L 3.21875 -2.359375 L 3.375 0 L 0.859375 0 L 1.015625 -2.359375 L 1.015625 -7.15625 L 0.859375 -9.4375 L 2.90625 -9.4375 L 3.21875 -8.28125 C 3.78125 -9.125 4.640625 -9.546875 5.796875 -9.546875 C 6.535156 -9.546875 7.113281 -9.3125 7.53125 -8.84375 C 7.957031 -8.382812 8.171875 -7.710938 8.171875 -6.828125 L 8.171875 -2.359375 L 8.328125 0 L 5.8125 0 Z M 5.96875 -2.359375 "/></g></g><g style="fill:#000000;fill-opacity:1;"><g transform="translate(83.355306, 65.762594)"><path style="stroke:none" d="M 0.546875 -8.796875 L 1.5625 -9.4375 L 2.03125 -11.390625 L 3.75 -11.390625 L 3.75 -9.4375 L 6.234375 -9.4375 L 6.234375 -7.3125 L 3.75 -7.3125 L 3.75 -3.15625 C 3.75 -2.789062 3.832031 -2.507812 4 -2.3125 C 4.164062 -2.113281 4.40625 -2.015625 4.71875 -2.015625 C 5.050781 -2.015625 5.351562 -2.078125 5.625 -2.203125 C 5.90625 -2.328125 6.132812 -2.5 6.3125 -2.71875 L 6.65625 -2.5625 L 6.15625 -0.625 C 5.726562 -0.300781 5.375 -0.0859375 5.09375 0.015625 C 4.820312 0.128906 4.488281 0.1875 4.09375 0.1875 C 3.476562 0.1875 2.988281 0.0664062 2.625 -0.171875 C 2.257812 -0.421875 1.988281 -0.820312 1.8125 -1.375 C 1.644531 -1.925781 1.5625 -2.675781 1.5625 -3.625 L 1.5625 -7.3125 L 0.546875 -7.3125 Z M 0.546875 -8.796875 "/></g></g><g style="fill:#000000;fill-opacity:1;"><g transform="translate(90.286205, 65.762594)"><path style="stroke:none" d=""/></g></g><g style="fill:#000000;fill-opacity:1;"><g transform="translate(93.429472, 65.762594)"><path style="stroke:none" d="M 0.234375 -2.859375 C 0.234375 -3.703125 0.414062 -4.375 0.78125 -4.875 C 1.15625 -5.375 1.769531 -5.820312 2.625 -6.21875 C 2.101562 -7.15625 1.84375 -7.984375 1.84375 -8.703125 C 1.84375 -9.742188 2.097656 -10.546875 2.609375 -11.109375 C 3.128906 -11.671875 3.921875 -11.953125 4.984375 -11.953125 C 6.035156 -11.953125 6.828125 -11.6875 7.359375 -11.15625 C 7.898438 -10.625 8.171875 -9.832031 8.171875 -8.78125 C 8.171875 -8.019531 7.957031 -7.335938 7.53125 -6.734375 C 7.113281 -6.140625 6.515625 -5.675781 5.734375 -5.34375 L 6.125 -4.890625 C 6.613281 -4.347656 6.984375 -3.914062 7.234375 -3.59375 L 7.640625 -4.1875 C 7.878906 -4.53125 8.066406 -4.804688 8.203125 -5.015625 L 8.5625 -6.25 L 11.109375 -6.25 C 10.847656 -5.59375 10.515625 -4.941406 10.109375 -4.296875 C 9.710938 -3.648438 9.265625 -3.050781 8.765625 -2.5 C 9.265625 -2.1875 9.675781 -2.03125 10 -2.03125 C 10.46875 -2.03125 10.910156 -2.082031 11.328125 -2.1875 L 11.5 -2.09375 L 10.859375 -0.1875 C 10.617188 -0.0820312 10.414062 -0.015625 10.25 0.015625 C 10.082031 0.046875 9.851562 0.0625 9.5625 0.0625 C 9.1875 0.0625 8.785156 -0.0390625 8.359375 -0.25 C 7.929688 -0.457031 7.503906 -0.769531 7.078125 -1.1875 C 6.578125 -0.738281 6.054688 -0.398438 5.515625 -0.171875 C 4.972656 0.0546875 4.429688 0.171875 3.890625 0.171875 C 2.648438 0.171875 1.726562 -0.078125 1.125 -0.578125 C 0.53125 -1.085938 0.234375 -1.847656 0.234375 -2.859375 Z M 3.953125 -8.78125 C 3.953125 -8.382812 4.171875 -7.738281 4.609375 -6.84375 C 5.128906 -7.164062 5.5 -7.476562 5.71875 -7.78125 C 5.945312 -8.09375 6.0625 -8.441406 6.0625 -8.828125 C 6.0625 -9.171875 5.972656 -9.4375 5.796875 -9.625 C 5.617188 -9.8125 5.367188 -9.90625 5.046875 -9.90625 C 4.316406 -9.90625 3.953125 -9.53125 3.953125 -8.78125 Z M 2.34375 -3.046875 C 2.34375 -2.679688 2.46875 -2.394531 2.71875 -2.1875 C 2.976562 -1.988281 3.320312 -1.890625 3.75 -1.890625 C 4.25 -1.890625 4.8125 -2.050781 5.4375 -2.375 C 4.71875 -3.113281 4.082031 -3.898438 3.53125 -4.734375 C 3.082031 -4.441406 2.769531 -4.171875 2.59375 -3.921875 C 2.425781 -3.679688 2.34375 -3.390625 2.34375 -3.046875 Z M 2.34375 -3.046875 "/></g></g><g style="fill:#000000;fill-opacity:1;"><g transform="translate(104.745217, 65.762594)"><path style="stroke:none" d=""/></g></g><g style="fill:#000000;fill-opacity:1;"><g transform="translate(107.888485, 65.762594)"><path style="stroke:none" d="M 9.15625 -2.375 L 9.328125 -0.015625 L 6.75 -0.015625 L 6.90625 -2.375 L 6.90625 -4.984375 L 3.359375 -4.984375 L 3.359375 -2.359375 L 3.515625 0 L 0.9375 0 L 1.09375 -2.359375 L 1.09375 -9.515625 L 0.9375 -11.78125 L 3.515625 -11.78125 L 3.359375 -9.515625 L 3.359375 -7.15625 L 6.90625 -7.15625 L 6.90625 -9.53125 L 6.75 -11.8125 L 9.328125 -11.8125 L 9.15625 -9.53125 Z M 9.15625 -2.375 "/></g></g><g style="fill:#000000;fill-opacity:1;"><g transform="translate(118.151237, 65.762594)"><path style="stroke:none" d="M 0.515625 -2.625 C 0.515625 -3.21875 0.660156 -3.757812 0.953125 -4.25 C 1.242188 -4.738281 1.625 -5.125 2.09375 -5.40625 C 2.570312 -5.6875 3.085938 -5.828125 3.640625 -5.828125 C 4.609375 -5.828125 5.359375 -5.6875 5.890625 -5.40625 L 5.890625 -6.234375 C 5.890625 -6.640625 5.726562 -6.953125 5.40625 -7.171875 C 5.09375 -7.390625 4.648438 -7.5 4.078125 -7.5 C 3.453125 -7.5 2.898438 -7.398438 2.421875 -7.203125 C 1.953125 -7.003906 1.59375 -6.703125 1.34375 -6.296875 L 1.15625 -6.328125 L 1.453125 -8.65625 C 1.804688 -8.96875 2.242188 -9.210938 2.765625 -9.390625 C 3.296875 -9.566406 3.835938 -9.65625 4.390625 -9.65625 C 5.515625 -9.65625 6.410156 -9.382812 7.078125 -8.84375 C 7.753906 -8.3125 8.09375 -7.585938 8.09375 -6.671875 L 8.09375 -2.34375 L 8.25 0 L 5.9375 0 L 5.890625 -0.859375 C 5.679688 -0.523438 5.351562 -0.253906 4.90625 -0.046875 C 4.46875 0.148438 3.976562 0.25 3.4375 0.25 C 2.550781 0.25 1.84375 -0.00390625 1.3125 -0.515625 C 0.78125 -1.023438 0.515625 -1.726562 0.515625 -2.625 Z M 2.78125 -2.765625 C 2.78125 -2.410156 2.867188 -2.132812 3.046875 -1.9375 C 3.234375 -1.75 3.503906 -1.65625 3.859375 -1.65625 C 4.253906 -1.65625 4.625 -1.726562 4.96875 -1.875 C 5.320312 -2.03125 5.628906 -2.25 5.890625 -2.53125 L 5.890625 -3.59375 C 5.304688 -3.882812 4.644531 -4.03125 3.90625 -4.03125 C 3.519531 -4.03125 3.234375 -3.921875 3.046875 -3.703125 C 2.867188 -3.492188 2.78125 -3.179688 2.78125 -2.765625 Z M 2.78125 -2.765625 "/></g></g><g style="fill:#000000;fill-opacity:1;"><g transform="translate(127.156686, 65.762594)"><path style="stroke:none" d="M 5.3125 -9.546875 C 5.945312 -9.546875 6.441406 -9.472656 6.796875 -9.328125 L 6.421875 -7.390625 L 6.21875 -7.25 C 5.894531 -7.457031 5.429688 -7.5625 4.828125 -7.5625 C 4.492188 -7.5625 4.195312 -7.492188 3.9375 -7.359375 C 3.675781 -7.222656 3.4375 -7.003906 3.21875 -6.703125 L 3.21875 -2.359375 L 3.375 0 L 0.859375 0 L 1.015625 -2.359375 L 1.015625 -7.15625 L 0.859375 -9.4375 L 2.90625 -9.4375 L 3.171875 -8.4375 C 3.710938 -9.175781 4.425781 -9.546875 5.3125 -9.546875 Z M 5.3125 -9.546875 "/></g></g><g style="fill:#000000;fill-opacity:1;"><g transform="translate(133.898931, 65.762594)"><path style="stroke:none" d="M 8.25 -2.34375 L 8.40625 0 L 6.09375 0 L 6.046875 -0.84375 C 5.847656 -0.5625 5.550781 -0.328125 5.15625 -0.140625 C 4.769531 0.0351562 4.398438 0.125 4.046875 0.125 C 2.941406 0.125 2.09375 -0.289062 1.5 -1.125 C 0.90625 -1.957031 0.609375 -3.160156 0.609375 -4.734375 C 0.609375 -6.398438 0.882812 -7.628906 1.4375 -8.421875 C 1.988281 -9.222656 2.800781 -9.625 3.875 -9.625 C 4.3125 -9.625 4.71875 -9.578125 5.09375 -9.484375 C 5.46875 -9.390625 5.785156 -9.253906 6.046875 -9.078125 L 6.046875 -10.296875 L 5.890625 -12.578125 L 8.40625 -12.578125 L 8.25 -10.296875 Z M 6.046875 -7.25 C 5.703125 -7.382812 5.191406 -7.453125 4.515625 -7.453125 C 4.066406 -7.453125 3.726562 -7.378906 3.5 -7.234375 C 3.269531 -7.085938 3.109375 -6.820312 3.015625 -6.4375 C 2.921875 -6.050781 2.875 -5.484375 2.875 -4.734375 C 2.875 -4.003906 2.914062 -3.445312 3 -3.0625 C 3.09375 -2.675781 3.242188 -2.398438 3.453125 -2.234375 C 3.660156 -2.078125 3.960938 -2 4.359375 -2 C 4.648438 -2 4.957031 -2.039062 5.28125 -2.125 C 5.613281 -2.21875 5.867188 -2.328125 6.046875 -2.453125 Z M 6.046875 -7.25 "/></g></g><g style="fill:#000000;fill-opacity:1;"><g transform="translate(143.171563, 65.762594)"><path style="stroke:none" d="M 13.734375 -9.4375 L 12.953125 -7.15625 L 11.53125 0 L 8.015625 0 L 6.875 -6.828125 L 5.71875 0 L 2.203125 0 L 0.796875 -7.15625 L 0 -9.4375 L 2.765625 -9.4375 L 3.984375 -1.53125 L 5.09375 -7.15625 L 5.453125 -9.4375 L 8.28125 -9.4375 L 8.625 -7.15625 L 9.765625 -1.515625 L 10.96875 -9.4375 Z M 13.734375 -9.4375 "/></g></g><g style="fill:#000000;fill-opacity:1;"><g transform="translate(156.561653, 65.762594)"><path style="stroke:none" d="M 0.515625 -2.625 C 0.515625 -3.21875 0.660156 -3.757812 0.953125 -4.25 C 1.242188 -4.738281 1.625 -5.125 2.09375 -5.40625 C 2.570312 -5.6875 3.085938 -5.828125 3.640625 -5.828125 C 4.609375 -5.828125 5.359375 -5.6875 5.890625 -5.40625 L 5.890625 -6.234375 C 5.890625 -6.640625 5.726562 -6.953125 5.40625 -7.171875 C 5.09375 -7.390625 4.648438 -7.5 4.078125 -7.5 C 3.453125 -7.5 2.898438 -7.398438 2.421875 -7.203125 C 1.953125 -7.003906 1.59375 -6.703125 1.34375 -6.296875 L 1.15625 -6.328125 L 1.453125 -8.65625 C 1.804688 -8.96875 2.242188 -9.210938 2.765625 -9.390625 C 3.296875 -9.566406 3.835938 -9.65625 4.390625 -9.65625 C 5.515625 -9.65625 6.410156 -9.382812 7.078125 -8.84375 C 7.753906 -8.3125 8.09375 -7.585938 8.09375 -6.671875 L 8.09375 -2.34375 L 8.25 0 L 5.9375 0 L 5.890625 -0.859375 C 5.679688 -0.523438 5.351562 -0.253906 4.90625 -0.046875 C 4.46875 0.148438 3.976562 0.25 3.4375 0.25 C 2.550781 0.25 1.84375 -0.00390625 1.3125 -0.515625 C 0.78125 -1.023438 0.515625 -1.726562 0.515625 -2.625 Z M 2.78125 -2.765625 C 2.78125 -2.410156 2.867188 -2.132812 3.046875 -1.9375 C 3.234375 -1.75 3.503906 -1.65625 3.859375 -1.65625 C 4.253906 -1.65625 4.625 -1.726562 4.96875 -1.875 C 5.320312 -2.03125 5.628906 -2.25 5.890625 -2.53125 L 5.890625 -3.59375 C 5.304688 -3.882812 4.644531 -4.03125 3.90625 -4.03125 C 3.519531 -4.03125 3.234375 -3.921875 3.046875 -3.703125 C 2.867188 -3.492188 2.78125 -3.179688 2.78125 -2.765625 Z M 2.78125 -2.765625 "/></g></g><g style="fill:#000000;fill-opacity:1;"><g transform="translate(165.567102, 65.762594)"><path style="stroke:none" d="M 5.3125 -9.546875 C 5.945312 -9.546875 6.441406 -9.472656 6.796875 -9.328125 L 6.421875 -7.390625 L 6.21875 -7.25 C 5.894531 -7.457031 5.429688 -7.5625 4.828125 -7.5625 C 4.492188 -7.5625 4.195312 -7.492188 3.9375 -7.359375 C 3.675781 -7.222656 3.4375 -7.003906 3.21875 -6.703125 L 3.21875 -2.359375 L 3.375 0 L 0.859375 0 L 1.015625 -2.359375 L 1.015625 -7.15625 L 0.859375 -9.4375 L 2.90625 -9.4375 L 3.171875 -8.4375 C 3.710938 -9.175781 4.425781 -9.546875 5.3125 -9.546875 Z M 5.3125 -9.546875 "/></g></g><g style="fill:#000000;fill-opacity:1;"><g transform="translate(172.309348, 65.762594)"><path style="stroke:none" d="M 4.671875 0.1875 C 3.265625 0.1875 2.234375 -0.222656 1.578125 -1.046875 C 0.929688 -1.878906 0.609375 -3.109375 0.609375 -4.734375 C 0.609375 -6.316406 0.953125 -7.535156 1.640625 -8.390625 C 2.328125 -9.253906 3.335938 -9.6875 4.671875 -9.6875 C 5.984375 -9.6875 6.953125 -9.351562 7.578125 -8.6875 C 8.210938 -8.03125 8.582031 -6.988281 8.6875 -5.5625 L 8.265625 -3.90625 L 2.90625 -3.90625 C 2.945312 -3.394531 3.046875 -3.003906 3.203125 -2.734375 C 3.359375 -2.460938 3.585938 -2.273438 3.890625 -2.171875 C 4.191406 -2.066406 4.609375 -2.015625 5.140625 -2.015625 C 5.835938 -2.015625 6.460938 -2.078125 7.015625 -2.203125 C 7.566406 -2.328125 7.941406 -2.488281 8.140625 -2.6875 L 8.40625 -2.546875 L 7.921875 -0.625 C 7.523438 -0.320312 7.070312 -0.113281 6.5625 0 C 6.0625 0.125 5.429688 0.1875 4.671875 0.1875 Z M 6.453125 -5.5625 C 6.453125 -6.226562 6.3125 -6.71875 6.03125 -7.03125 C 5.75 -7.351562 5.316406 -7.515625 4.734375 -7.515625 C 4.109375 -7.515625 3.65625 -7.367188 3.375 -7.078125 C 3.101562 -6.796875 2.941406 -6.289062 2.890625 -5.5625 Z M 6.453125 -5.5625 "/></g></g><g style="fill:#000000;fill-opacity:1;"><g transform="translate(181.457216, 65.762594)"><path style="stroke:none" d=""/></g></g><g style="fill:#000000;fill-opacity:1;"><g transform="translate(51.561343, 87.417739)"><path style="stroke:none" d="M 6.375 0.25 C 5.375 0.25 4.414062 0.0664062 3.5 -0.296875 C 2.59375 -0.660156 1.804688 -1.1875 1.140625 -1.875 L 0.671875 -5.015625 L 0.984375 -5.109375 C 1.816406 -4.390625 2.65625 -3.835938 3.5 -3.453125 C 4.34375 -3.078125 5.160156 -2.890625 5.953125 -2.890625 C 6.890625 -2.890625 7.613281 -3.035156 8.125 -3.328125 C 8.632812 -3.617188 8.890625 -4.03125 8.890625 -4.5625 C 8.890625 -5.070312 8.644531 -5.484375 8.15625 -5.796875 C 7.675781 -6.117188 6.8125 -6.46875 5.5625 -6.84375 C 4.394531 -7.1875 3.476562 -7.5625 2.8125 -7.96875 C 2.144531 -8.382812 1.660156 -8.90625 1.359375 -9.53125 C 1.054688 -10.15625 0.90625 -10.96875 0.90625 -11.96875 C 0.90625 -13.519531 1.414062 -14.734375 2.4375 -15.609375 C 3.457031 -16.492188 4.800781 -16.9375 6.46875 -16.9375 C 7.476562 -16.9375 8.445312 -16.78125 9.375 -16.46875 C 10.3125 -16.15625 11.070312 -15.738281 11.65625 -15.21875 L 11.15625 -12.203125 L 10.828125 -12.125 C 10.515625 -12.613281 9.972656 -13.015625 9.203125 -13.328125 C 8.441406 -13.640625 7.625 -13.796875 6.75 -13.796875 C 5.945312 -13.796875 5.328125 -13.65625 4.890625 -13.375 C 4.460938 -13.09375 4.25 -12.675781 4.25 -12.125 C 4.25 -11.5625 4.460938 -11.125 4.890625 -10.8125 C 5.316406 -10.507812 6.085938 -10.203125 7.203125 -9.890625 C 8.472656 -9.535156 9.460938 -9.148438 10.171875 -8.734375 C 10.890625 -8.328125 11.410156 -7.820312 11.734375 -7.21875 C 12.066406 -6.613281 12.234375 -5.832031 12.234375 -4.875 C 12.234375 -3.257812 11.695312 -2 10.625 -1.09375 C 9.5625 -0.195312 8.144531 0.25 6.375 0.25 Z M 6.375 0.25 "/></g></g><g style="fill:#000000;fill-opacity:1;"><g transform="translate(64.45769, 87.417739)"><path style="stroke:none" d="M 0.78125 -12.484375 L 2.203125 -13.375 L 2.875 -16.15625 L 5.328125 -16.15625 L 5.328125 -13.375 L 8.84375 -13.375 L 8.84375 -10.359375 L 5.328125 -10.359375 L 5.328125 -4.484375 C 5.328125 -3.960938 5.441406 -3.5625 5.671875 -3.28125 C 5.898438 -3 6.238281 -2.859375 6.6875 -2.859375 C 7.15625 -2.859375 7.585938 -2.945312 7.984375 -3.125 C 8.378906 -3.300781 8.703125 -3.546875 8.953125 -3.859375 L 9.421875 -3.625 L 8.734375 -0.890625 C 8.128906 -0.429688 7.628906 -0.125 7.234375 0.03125 C 6.835938 0.1875 6.359375 0.265625 5.796875 0.265625 C 4.929688 0.265625 4.238281 0.09375 3.71875 -0.25 C 3.195312 -0.601562 2.8125 -1.171875 2.5625 -1.953125 C 2.320312 -2.734375 2.203125 -3.796875 2.203125 -5.140625 L 2.203125 -10.359375 L 0.78125 -10.359375 Z M 0.78125 -12.484375 "/></g></g><g style="fill:#000000;fill-opacity:1;"><g transform="translate(74.280295, 87.417739)"><path style="stroke:none" d="M 6.625 0.359375 C 4.613281 0.359375 3.148438 -0.234375 2.234375 -1.421875 C 1.328125 -2.609375 0.875 -4.367188 0.875 -6.703125 C 0.875 -9.035156 1.328125 -10.785156 2.234375 -11.953125 C 3.148438 -13.128906 4.613281 -13.71875 6.625 -13.71875 C 8.625 -13.71875 10.078125 -13.128906 10.984375 -11.953125 C 11.898438 -10.785156 12.359375 -9.035156 12.359375 -6.703125 C 12.359375 -4.367188 11.898438 -2.609375 10.984375 -1.421875 C 10.078125 -0.234375 8.625 0.359375 6.625 0.359375 Z M 6.625 -2.71875 C 7.320312 -2.71875 7.847656 -2.832031 8.203125 -3.0625 C 8.554688 -3.289062 8.800781 -3.679688 8.9375 -4.234375 C 9.082031 -4.796875 9.15625 -5.613281 9.15625 -6.6875 C 9.15625 -7.75 9.082031 -8.554688 8.9375 -9.109375 C 8.800781 -9.671875 8.554688 -10.066406 8.203125 -10.296875 C 7.847656 -10.535156 7.320312 -10.65625 6.625 -10.65625 C 5.914062 -10.65625 5.382812 -10.535156 5.03125 -10.296875 C 4.675781 -10.066406 4.425781 -9.671875 4.28125 -9.109375 C 4.144531 -8.554688 4.078125 -7.75 4.078125 -6.6875 C 4.078125 -5.613281 4.144531 -4.796875 4.28125 -4.234375 C 4.425781 -3.679688 4.675781 -3.289062 5.03125 -3.0625 C 5.382812 -2.832031 5.914062 -2.71875 6.625 -2.71875 Z M 6.625 -2.71875 "/></g></g><g style="fill:#000000;fill-opacity:1;"><g transform="translate(87.510753, 87.417739)"><path style="stroke:none" d="M 7.53125 -13.53125 C 8.4375 -13.53125 9.132812 -13.425781 9.625 -13.21875 L 9.109375 -10.46875 L 8.828125 -10.265625 C 8.359375 -10.566406 7.695312 -10.71875 6.84375 -10.71875 C 6.363281 -10.71875 5.941406 -10.617188 5.578125 -10.421875 C 5.210938 -10.234375 4.875 -9.921875 4.5625 -9.484375 L 4.5625 -3.34375 L 4.796875 0 L 1.21875 0 L 1.453125 -3.34375 L 1.453125 -10.140625 L 1.21875 -13.375 L 4.125 -13.375 L 4.5 -11.96875 C 5.257812 -13.007812 6.269531 -13.53125 7.53125 -13.53125 Z M 7.53125 -13.53125 "/></g></g><g style="fill:#000000;fill-opacity:1;"><g transform="translate(97.066074, 87.417739)"><path style="stroke:none" d="M 6.625 0.265625 C 4.625 0.265625 3.164062 -0.316406 2.25 -1.484375 C 1.332031 -2.660156 0.875 -4.398438 0.875 -6.703125 C 0.875 -8.953125 1.359375 -10.679688 2.328125 -11.890625 C 3.296875 -13.109375 4.726562 -13.71875 6.625 -13.71875 C 8.476562 -13.71875 9.851562 -13.25 10.75 -12.3125 C 11.644531 -11.382812 12.171875 -9.910156 12.328125 -7.890625 L 11.71875 -5.546875 L 4.125 -5.546875 C 4.1875 -4.816406 4.328125 -4.257812 4.546875 -3.875 C 4.765625 -3.488281 5.085938 -3.222656 5.515625 -3.078125 C 5.941406 -2.929688 6.53125 -2.859375 7.28125 -2.859375 C 8.28125 -2.859375 9.171875 -2.945312 9.953125 -3.125 C 10.734375 -3.300781 11.265625 -3.53125 11.546875 -3.8125 L 11.921875 -3.609375 L 11.234375 -0.890625 C 10.671875 -0.460938 10.03125 -0.164062 9.3125 0 C 8.601562 0.175781 7.707031 0.265625 6.625 0.265625 Z M 9.15625 -7.890625 C 9.15625 -8.828125 8.953125 -9.519531 8.546875 -9.96875 C 8.148438 -10.425781 7.535156 -10.65625 6.703125 -10.65625 C 5.828125 -10.65625 5.191406 -10.445312 4.796875 -10.03125 C 4.410156 -9.625 4.175781 -8.910156 4.09375 -7.890625 Z M 9.15625 -7.890625 "/></g></g><g style="fill:#000000;fill-opacity:1;"><g transform="translate(110.03957, 87.417739)"><path style="stroke:none" d=""/></g></g></g></svg>